<?xml version="1.0" encoding="UTF-8"?>
<svg width="270px" height="50px" viewBox="0 0 270 50" version="1.1" xmlns="http://www.w3.org/2000/svg" xmlns:xlink="http://www.w3.org/1999/xlink">
    <!-- Generator: Sketch 51.3 (57544) - http://www.bohemiancoding.com/sketch -->
    <title>button</title>
    <desc>Created with Sketch.</desc>
    <defs></defs>
    <g id="Page-1" stroke="none" stroke-width="1" fill="none" fill-rule="evenodd">
        <g id="button">
            <rect id="BG" fill="#FF9900" fill-rule="nonzero" x="0" y="0" width="270" height="50" rx="2"></rect>
            <g id="Group" transform="translate(15.000000, 16.000000)" fill="#FFFFFF">
                <path d="M32.12,15 L32.12,5.298 L35.606,5.298 C37.0526739,5.298 38.1656628,5.71566249 38.945,6.551 C39.7243372,7.38633751 40.114,8.58332554 40.114,10.142 C40.114,11.6913411 39.7243372,12.8883291 38.945,13.733 C38.1656628,14.5776709 37.0666738,15 35.648,15 L32.12,15 Z M34.22,6.922 L34.22,13.376 L35.424,13.376 C37.1133418,13.376 37.958,12.344677 37.958,10.282 L37.958,10.002 C37.958,7.9486564 37.1086752,6.922 35.41,6.922 L34.22,6.922 Z M42.074,15 L42.074,5.298 L48.458,5.298 L48.458,6.922 L44.174,6.922 L44.174,9.218 L47.66,9.218 L47.66,10.842 L44.174,10.842 L44.174,13.376 L48.458,13.376 L48.458,15 L42.074,15 Z M52.21,11.458 L52.21,15 L50.166,15 L50.166,5.298 L53.876,5.298 C54.884005,5.298 55.6819971,5.57333058 56.27,6.124 C56.8580029,6.67466942 57.152,7.42599524 57.152,8.378 C57.152,9.33000476 56.8580029,10.0813306 56.27,10.632 C55.6819971,11.1826694 54.884005,11.458 53.876,11.458 L52.21,11.458 Z M52.21,9.89 L53.638,9.89 C54.104669,9.89 54.4616654,9.76166795 54.709,9.505 C54.9563346,9.24833205 55.08,8.87266914 55.08,8.378 C55.08,7.88333086 54.9563346,7.50766795 54.709,7.251 C54.4616654,6.99433205 54.104669,6.866 53.638,6.866 L52.21,6.866 L52.21,9.89 Z M58.832,15 L58.832,5.298 L60.932,5.298 L60.932,13.32 L65.188,13.32 L65.188,15 L58.832,15 Z M68.1,10.142 C68.1,11.2433388 68.3193311,12.0833304 68.758,12.662 C69.1966689,13.2406696 69.8359958,13.53 70.676,13.53 C71.5160042,13.53 72.1553311,13.2406696 72.594,12.662 C73.0326689,12.0833304 73.252,11.2433388 73.252,10.142 C73.252,9.04066116 73.0326689,8.20300287 72.594,7.629 C72.1553311,7.05499713 71.5160042,6.768 70.676,6.768 C69.8359958,6.768 69.1966689,7.05499713 68.758,7.629 C68.3193311,8.20300287 68.1,9.04066116 68.1,10.142 Z M65.944,10.142 C65.944,9.1153282 66.1283315,8.21933716 66.497,7.454 C66.8656685,6.68866284 67.4069964,6.09833541 68.121,5.683 C68.8350036,5.26766459 69.6866617,5.06 70.676,5.06 C71.6373381,5.06 72.4726631,5.26066466 73.182,5.662 C73.8913369,6.06333534 74.4396647,6.64432953 74.827,7.405 C75.2143353,8.16567047 75.408,9.07799468 75.408,10.142 C75.408,11.1686718 75.2236685,12.0646628 74.855,12.83 C74.4863315,13.5953372 73.9450036,14.1879979 73.231,14.608 C72.5169964,15.0280021 71.6653383,15.238 70.676,15.238 C69.7146619,15.238 68.8793369,15.0373353 68.17,14.636 C67.4606631,14.2346647 66.9123353,13.6513372 66.525,12.886 C66.1376647,12.1206628 65.944,11.2060053 65.944,10.142 Z M78.894,15 L78.894,11.416 L75.688,5.298 L77.998,5.298 L79.986,9.834 L82.03,5.298 L84.228,5.298 L80.966,11.444 L80.966,15 L78.894,15 Z M91.158,15 L91.158,6.978 L88.204,6.978 L88.204,5.298 L96.212,5.298 L96.212,6.978 L93.258,6.978 L93.258,15 L91.158,15 Z M99.096,10.142 C99.096,11.2433388 99.3153311,12.0833304 99.754,12.662 C100.192669,13.2406696 100.831996,13.53 101.672,13.53 C102.512004,13.53 103.151331,13.2406696 103.59,12.662 C104.028669,12.0833304 104.248,11.2433388 104.248,10.142 C104.248,9.04066116 104.028669,8.20300287 103.59,7.629 C103.151331,7.05499713 102.512004,6.768 101.672,6.768 C100.831996,6.768 100.192669,7.05499713 99.754,7.629 C99.3153311,8.20300287 99.096,9.04066116 99.096,10.142 Z M96.94,10.142 C96.94,9.1153282 97.1243315,8.21933716 97.493,7.454 C97.8616685,6.68866284 98.4029964,6.09833541 99.117,5.683 C99.8310036,5.26766459 100.682662,5.06 101.672,5.06 C102.633338,5.06 103.468663,5.26066466 104.178,5.662 C104.887337,6.06333534 105.435665,6.64432953 105.823,7.405 C106.210335,8.16567047 106.404,9.07799468 106.404,10.142 C106.404,11.1686718 106.219669,12.0646628 105.851,12.83 C105.482331,13.5953372 104.941004,14.1879979 104.227,14.608 C103.512996,15.0280021 102.661338,15.238 101.672,15.238 C100.710662,15.238 99.8753369,15.0373353 99.166,14.636 C98.4566631,14.2346647 97.9083353,13.6513372 97.521,12.886 C97.1336647,12.1206628 96.94,11.2060053 96.94,10.142 Z M117.856,15 L117.17,12.788 L113.852,12.788 L113.194,15 L110.996,15 L114.412,5.298 L116.722,5.298 L120.138,15 L117.856,15 Z M114.3,11.276 L116.736,11.276 L115.504,7.216 L114.3,11.276 Z M129.35,15 L129.35,8.28 L127.208,12.634 L125.332,12.634 L123.19,8.28 L123.19,15 L121.342,15 L121.342,5.298 L123.638,5.298 L126.284,10.814 L128.944,5.298 L131.198,5.298 L131.198,15 L129.35,15 Z M135.482,11.458 L135.482,15 L133.438,15 L133.438,5.298 L137.148,5.298 C138.156005,5.298 138.953997,5.57333058 139.542,6.124 C140.130003,6.67466942 140.424,7.42599524 140.424,8.378 C140.424,9.33000476 140.130003,10.0813306 139.542,10.632 C138.953997,11.1826694 138.156005,11.458 137.148,11.458 L135.482,11.458 Z M135.482,9.89 L136.91,9.89 C137.376669,9.89 137.733665,9.76166795 137.981,9.505 C138.228335,9.24833205 138.352,8.87266914 138.352,8.378 C138.352,7.88333086 138.228335,7.50766795 137.981,7.251 C137.733665,6.99433205 137.376669,6.866 136.91,6.866 L135.482,6.866 L135.482,9.89 Z M142.104,15 L142.104,5.298 L144.204,5.298 L144.204,13.32 L148.46,13.32 L148.46,15 L142.104,15 Z M149.762,15 L149.762,5.298 L151.862,5.298 L151.862,15 L149.762,15 Z M154.158,15 L154.158,5.298 L160.262,5.298 L160.262,6.922 L156.258,6.922 L156.258,9.358 L159.45,9.358 L159.45,10.982 L156.258,10.982 L156.258,15 L154.158,15 Z M164.084,15 L164.084,11.416 L160.878,5.298 L163.188,5.298 L165.176,9.834 L167.22,5.298 L169.418,5.298 L166.156,11.444 L166.156,15 L164.084,15 Z M181.402,14.748 C180.645996,15.0373348 179.801338,15.182 178.868,15.182 C177.290659,15.182 176.096004,14.7596709 175.284,13.915 C174.471996,13.0703291 174.066,11.8313415 174.066,10.198 C174.066,8.58332526 174.490662,7.3326711 175.34,6.446 C176.189338,5.5593289 177.383992,5.116 178.924,5.116 C179.745337,5.116 180.524663,5.24666536 181.262,5.508 L181.262,7.16 C180.412662,6.9733324 179.717336,6.88 179.176,6.88 C178.205328,6.88 177.479669,7.1366641 176.999,7.65 C176.518331,8.1633359 176.278,8.94732806 176.278,10.002 L176.278,10.324 C176.278,11.3693386 176.511331,12.1463308 176.978,12.655 C177.444669,13.1636692 178.158662,13.418 179.12,13.418 C179.661336,13.418 180.421995,13.3106677 181.402,13.096 L181.402,14.748 Z M184.412,10.142 C184.412,11.2433388 184.631331,12.0833304 185.07,12.662 C185.508669,13.2406696 186.147996,13.53 186.988,13.53 C187.828004,13.53 188.467331,13.2406696 188.906,12.662 C189.344669,12.0833304 189.564,11.2433388 189.564,10.142 C189.564,9.04066116 189.344669,8.20300287 188.906,7.629 C188.467331,7.05499713 187.828004,6.768 186.988,6.768 C186.147996,6.768 185.508669,7.05499713 185.07,7.629 C184.631331,8.20300287 184.412,9.04066116 184.412,10.142 Z M182.256,10.142 C182.256,9.1153282 182.440331,8.21933716 182.809,7.454 C183.177669,6.68866284 183.718996,6.09833541 184.433,5.683 C185.147004,5.26766459 185.998662,5.06 186.988,5.06 C187.949338,5.06 188.784663,5.26066466 189.494,5.662 C190.203337,6.06333534 190.751665,6.64432953 191.139,7.405 C191.526335,8.16567047 191.72,9.07799468 191.72,10.142 C191.72,11.1686718 191.535669,12.0646628 191.167,12.83 C190.798331,13.5953372 190.257004,14.1879979 189.543,14.608 C188.828996,15.0280021 187.977338,15.238 186.988,15.238 C186.026662,15.238 185.191337,15.0373353 184.482,14.636 C183.772663,14.2346647 183.224335,13.6513372 182.837,12.886 C182.449665,12.1206628 182.256,11.2060053 182.256,10.142 Z M195.528,8.266 L195.528,15 L193.68,15 L193.68,5.298 L195.92,5.298 L199.868,12.088 L199.868,5.298 L201.716,5.298 L201.716,15 L199.476,15 L195.528,8.266 Z M205.846,10.758 C205.015329,10.4499985 204.418002,10.0743356 204.054,9.631 C203.689998,9.18766445 203.508,8.62533674 203.508,7.944 C203.508,7.06666228 203.83233,6.36666928 204.481,5.844 C205.12967,5.32133072 205.999995,5.06 207.092,5.06 C208.006671,5.06 208.902662,5.22799832 209.78,5.564 L209.78,7.16 C208.874662,6.8799986 208.034671,6.74 207.26,6.74 C206.158661,6.74 205.608,7.09466312 205.608,7.804 C205.608,8.06533464 205.703666,8.27999916 205.895,8.448 C206.086334,8.61600084 206.443331,8.7933324 206.966,8.98 L208.002,9.358 C208.870004,9.67533492 209.488331,10.0463312 209.857,10.471 C210.225669,10.8956688 210.41,11.4486633 210.41,12.13 C210.41,13.0913381 210.06467,13.8496639 209.374,14.405 C208.68333,14.9603361 207.736006,15.238 206.532,15.238 C206.009331,15.238 205.486669,15.1890005 204.964,15.091 C204.441331,14.9929995 203.993335,14.8600008 203.62,14.692 L203.62,13.096 C204.086669,13.2360007 204.585997,13.3479996 205.118,13.432 C205.650003,13.5160004 206.130665,13.558 206.56,13.558 C207.110669,13.558 207.535332,13.4576677 207.834,13.257 C208.132668,13.0563323 208.282,12.7693352 208.282,12.396 C208.282,12.1066652 208.191001,11.8780008 208.009,11.71 C207.826999,11.5419992 207.460669,11.3553344 206.91,11.15 L205.846,10.758 Z M213.882,10.142 C213.882,11.2433388 214.101331,12.0833304 214.54,12.662 C214.978669,13.2406696 215.617996,13.53 216.458,13.53 C217.298004,13.53 217.937331,13.2406696 218.376,12.662 C218.814669,12.0833304 219.034,11.2433388 219.034,10.142 C219.034,9.04066116 218.814669,8.20300287 218.376,7.629 C217.937331,7.05499713 217.298004,6.768 216.458,6.768 C215.617996,6.768 214.978669,7.05499713 214.54,7.629 C214.101331,8.20300287 213.882,9.04066116 213.882,10.142 Z M211.726,10.142 C211.726,9.1153282 211.910331,8.21933716 212.279,7.454 C212.647669,6.68866284 213.188996,6.09833541 213.903,5.683 C214.617004,5.26766459 215.468662,5.06 216.458,5.06 C217.419338,5.06 218.254663,5.26066466 218.964,5.662 C219.673337,6.06333534 220.221665,6.64432953 220.609,7.405 C220.996335,8.16567047 221.19,9.07799468 221.19,10.142 C221.19,11.1686718 221.005669,12.0646628 220.637,12.83 C220.268331,13.5953372 219.727004,14.1879979 219.013,14.608 C218.298996,15.0280021 217.447338,15.238 216.458,15.238 C215.496662,15.238 214.661337,15.0373353 213.952,14.636 C213.242663,14.2346647 212.694335,13.6513372 212.307,12.886 C211.919665,12.1206628 211.726,11.2060053 211.726,10.142 Z M223.15,15 L223.15,5.298 L225.25,5.298 L225.25,13.32 L229.506,13.32 L229.506,15 L223.15,15 Z M230.752,15 L230.752,5.298 L237.136,5.298 L237.136,6.922 L232.852,6.922 L232.852,9.218 L236.338,9.218 L236.338,10.842 L232.852,10.842 L232.852,13.376 L237.136,13.376 L237.136,15 L230.752,15 Z" id="DEPLOY-TO-AMPLIFY-CONSOLE"></path>
                <g id="Amplify-Logo-White" fill-rule="nonzero">
                    <path d="M5.22273611,14.9361702 L11.982739,14.9361702 L13.7142857,18 L13.6655032,18 L0,18 L4.81540198,9.61126028 L6.8333681,6.09842466 L8.56590672,9.11650686 L5.22273611,14.9361702 Z M7.74388792,4.5098137 L9.40738145,1.61206027 L18.821803,17.9999507 L15.4877882,17.9999507 L7.74388792,4.5098137 Z M10.3332638,0 L13.6628401,0 L24,18 L20.6662316,18 L10.3332638,0 Z" id="Fill-1"></path>
                </g>
            </g>
        </g>
    </g>
</svg>